<svg width="20" height="16" viewBox="0 0 20 16" fill="none" xmlns="http://www.w3.org/2000/svg">
<path d="M19.1668 0.499957C18.3688 1.06285 17.4853 1.49338 16.5502 1.77496C16.0483 1.19788 15.3813 0.788867 14.6394 0.603229C13.8974 0.417591 13.1164 0.464287 12.4019 0.737001C11.6874 1.00972 11.0739 1.49529 10.6443 2.12805C10.2148 2.76082 9.98991 3.51024 10.0002 4.27496V5.10829C8.53569 5.14626 7.08456 4.82147 5.776 4.16283C4.46745 3.50419 3.34209 2.53215 2.50016 1.33329C2.50016 1.33329 -0.83317 8.83329 6.66683 12.1666C4.9506 13.3316 2.90613 13.9157 0.833496 13.8333C8.3335 18 17.5002 13.8333 17.5002 4.24996C17.4994 4.01783 17.4771 3.78629 17.4335 3.55829C18.284 2.71953 18.8842 1.66055 19.1668 0.499957Z" fill="white"/>
</svg>
